# xmcd
#
# Track frame offsets:
#	150
#	8276
#	19813
#	31133
#	41871
#	51887
#	60852
#	70488
#	84350
#	95325
#	106592
#	119537
#	133139
#	143215
#	154288
#	165316
#	174539
#	186762
#	197389
#	209337
#	220540
#	233342
#	243765
#	256330
#	271963
#	282634
#	291913
#	305386
#	318166
#
# Disc length: 4432 seconds
#
# Revision: 3
# Processed by: cddbd v1.5.2PL0 Copyright (c) Steve Scherf et al.
# Submitted via: audiograbber 1.83.01
#
DISCID=87114e1d
DTITLE=Sandy Posey - Born To Be Hurt - The Anthrology - 1966-1982
DYEAR=2004
DGENRE=Oldies
TTITLE0=Born A Woman
TTITLE1=Single Girl
TTITLE2=See Ya Round On The Rebound
TTITLE3=Here Comes My Baby Back Again
TTITLE4=What A Woman In Love Won't Do
TTITLE5=Hey Mister
TTITLE6=Bread And Butter
TTITLE7=Love Of The Common People
TTITLE8=I Take It Back
TTITLE9=Standing In The Rain
TTITLE10=Sunglasses
TTITLE11=Are You Never Coming Home 
TTITLE12=Just You, Just Me (And Love For Company)
TTITLE13=One Man Woman
TTITLE14=Silly Girl, Silly Boy
TTITLE15=Deep In Kentucky
TTITLE16=Ways Of The World
TTITLE17=Your Conception Of Love
TTITLE18=Bring Him Safely Home To Me
TTITLE19=Why Don't We Go Somewhere And Love 
TTITLE20=Lonesome City Blues
TTITLE21=Happy Happy Birthday Baby
TTITLE22=Don't
TTITLE23=Why Do We Carry On (The Way We Do)
TTITLE24=It's Midnight (Do You Know Where Your Baby Is)
TTITLE25=Born To Be With You
TTITLE26=Love, Love, Love/Chapel Of Love
TTITLE27=Love Is Sometimes Easy
TTITLE28=Can't Get Used To Sleeping Without You
EXTD=
EXTT0=
EXTT1=
EXTT2=
EXTT3=
EXTT4=
EXTT5=
EXTT6=
EXTT7=
EXTT8=
EXTT9=
EXTT10=
EXTT11=
EXTT12=
EXTT13=
EXTT14=
EXTT15=
EXTT16=
EXTT17=
EXTT18=
EXTT19=
EXTT20=
EXTT21=
EXTT22=
EXTT23=
EXTT24=
EXTT25=
EXTT26=
EXTT27=
EXTT28=
PLAYORDER=
